<svg viewBox="0 0 191 56" fill="none" xmlns="http://www.w3.org/2000/svg" aria-label="Id8Media Logo" width="150"><path d="M29.0312 0.00115219C24.9553 0.00115219 21.151 1.61725 18.3182 4.54902C17.0739 5.83592 16.0932 7.31044 15.3922 8.90812H0.00585938V0H29.0312V0.00115219Z" fill="rgb(110, 164, 147)"></path><path d="M20.8035 38.0085C20.8035 33.4721 24.4938 29.7818 29.0301 29.7818C24.6687 29.7818 20.739 27.8975 18.0133 24.899C14.2769 28.0449 11.8965 32.7527 11.8965 38.0074C11.8965 40.9863 12.6619 43.7903 14.0052 46.2329H29.0301C24.4938 46.2352 20.8035 42.5449 20.8035 38.0085Z" fill="rgb(69, 120, 101)"></path><path d="M35.0135 14.8919C35.0135 18.1909 32.3292 20.8751 29.0303 20.8751C33.2213 20.8751 37.0636 22.3899 40.0437 24.8981C42.1927 22.5327 43.5936 19.4766 43.8675 16.1063C40.4489 11.7311 35.1286 8.90979 29.1592 8.90979H29.0314C32.3281 8.90864 35.0135 11.5918 35.0135 14.8919Z" fill="rgb(110, 164, 147)"></path><path d="M29.0289 55.141H0.00585938V46.234H14.0051C16.9208 51.5381 22.5622 55.141 29.0289 55.141Z" fill="rgb(22, 63, 54)"></path><path d="M56.7274 27.5681C56.7274 42.7139 44.7678 54.9152 29.3987 55.135C38.6752 54.9382 46.1629 47.3296 46.1629 38.006C46.1629 37.1956 46.1019 36.4003 45.9925 35.6187C47.1631 33.1807 47.8192 30.4504 47.8192 27.5693C47.8192 23.2482 46.3401 19.2701 43.8653 16.1035C43.8976 15.7029 43.9183 15.2989 43.9183 14.8902C43.9183 6.72457 37.3111 0.0759963 29.165 0.003479C44.3373 0.03686 56.7274 12.3878 56.7274 27.5681Z" fill="rgb(69, 120, 101)"></path><path d="M40.0427 24.8967C37.3181 27.8952 33.3907 29.7818 29.0293 29.7818C33.5657 29.7818 37.256 33.4721 37.256 38.0085C37.256 42.5448 33.5657 46.234 29.0293 46.234H29.1571C36.5665 46.234 42.9814 41.8933 45.9926 35.6212C45.3929 31.3369 43.2047 27.5568 40.0427 24.8967Z" fill="rgb(69, 120, 101)"></path><path d="M29.0296 20.8746C24.8374 20.8746 20.994 22.3905 18.0127 24.8999C20.7384 27.8972 24.6682 29.7827 29.0296 29.7827C33.391 29.7827 37.3184 27.8961 40.043 24.8976C37.0629 22.3894 33.2206 20.8746 29.0296 20.8746Z" fill="rgb(26, 64, 46)"></path><path d="M8.91848 13.184H0V42.0286H8.91848V13.184Z" fill="rgb(22, 63, 54)"></path><path d="M46.1623 38.008C46.1623 37.1977 46.1013 36.4012 45.9919 35.6207C42.9807 41.8929 36.567 46.2336 29.1564 46.2336H29.0286H14.0049C16.9205 51.5377 22.5619 55.1405 29.0298 55.1405C38.4766 55.1417 46.1623 47.456 46.1623 38.008Z" fill="rgb(12, 31, 25)"></path><path d="M43.9207 14.8937C43.9207 15.3023 43.8999 15.704 43.8654 16.1035C40.4479 11.7294 35.1288 8.90928 29.1593 8.90928H15.3926C16.0936 7.3116 17.0754 5.83593 18.3186 4.55019C21.1502 1.61727 24.9557 0.00231934 29.0316 0.00231934H29.1593C37.3112 0.0713834 43.9207 6.7234 43.9207 14.8937Z" fill="rgb(22, 63, 54)"></path><path d="M23.0456 14.893C23.0456 11.5883 25.7253 8.90979 29.0289 8.90979H15.3922C14.5738 10.7745 14.1387 12.8027 14.1387 14.893C14.1387 18.7422 15.6074 22.2553 18.0132 24.9004C20.9944 22.3911 24.8378 20.8751 29.03 20.8751C25.7299 20.8751 23.0456 18.192 23.0456 14.893Z" fill="rgb(110, 164, 147)"></path><path d="M68.7266 16.5558H73.0841V38.9024H68.7266V16.5558Z" fill="rgb(20, 62, 53)"></path><path d="M76.251 16.5558H83.3723C89.7673 16.5558 93.9836 20.7418 93.9836 27.6763C93.9836 34.6107 89.7471 38.9236 83.3723 38.9236H76.251V16.5558ZM80.6085 20.4458V35.0124H83.2512C87.4877 35.0124 89.4647 32.3908 89.4647 27.6763C89.4647 22.9617 87.4877 20.467 83.2512 20.467H80.6085V20.4458Z" fill="rgb(20, 62, 53)"></path><path d="M96.485 33.1942C96.485 30.8052 97.6954 29.135 99.4102 28.1837C97.9577 27.1266 96.9692 25.689 96.9692 23.3634C96.9692 19.5579 99.9347 17.1055 104.01 17.1055C108.851 17.1055 111.131 19.7482 111.131 23.0463C111.131 25.1604 110.183 26.746 108.609 27.8454C110.566 28.987 111.656 30.5304 111.656 32.7714C111.656 36.7883 108.791 39.3253 103.969 39.3253C99.7128 39.3253 96.4648 37.19 96.4648 33.2365L96.485 33.1942ZM107.359 33.0885C107.359 31.2281 105.866 30.6572 103.062 29.7904C102.9 29.7481 102.779 29.6847 102.638 29.6636C101.609 30.3401 100.782 31.3549 100.782 32.8348C100.782 34.7587 102.275 35.7735 104.131 35.7735C106.088 35.7735 107.359 34.8433 107.359 33.0885ZM105.341 26.4078C106.289 25.6044 106.895 24.653 106.895 23.2788C106.895 21.6721 105.866 20.5938 104.01 20.5938C102.396 20.5938 101.246 21.5452 101.246 23.0885C101.246 24.8221 102.456 25.541 104.696 26.2175C104.938 26.2809 105.16 26.3443 105.361 26.4078H105.341Z" fill="rgb(20, 62, 53)"></path><path d="M138.709 16.5558V38.9024H137.277V22.5811C137.277 21.3338 137.297 20.2767 137.337 19.4099C135.239 24.5262 132.576 29.727 129.026 35.6044H127.654C124.083 29.727 121.44 24.4839 119.302 19.3888C119.362 20.2767 119.403 21.3972 119.403 22.5811V38.9024H118.011V16.5558H119.544C121.803 22.3909 124.87 28.1414 128.42 34.1456C131.951 28.1414 134.936 22.3909 137.196 16.5558H138.749H138.709Z" fill="rgb(20, 62, 53)"></path><path d="M149.643 39.2822C144.882 39.2822 141.876 36.4069 141.876 30.8467C141.876 26.0264 144.378 22.5169 148.735 22.5169C152.81 22.5169 154.827 25.6459 154.827 29.3879C154.827 30.0222 154.807 30.5296 154.727 31.1215H143.328C143.429 35.7515 145.891 37.9291 149.703 37.9291C151.297 37.9291 152.931 37.5063 154.404 36.8509L154.747 38.1617C153.193 38.9651 151.539 39.3033 149.663 39.3033L149.643 39.2822ZM143.369 29.8953H153.335C153.355 29.6416 153.355 29.4725 153.355 29.1976C153.355 26.555 152.084 23.87 148.715 23.87C145.346 23.87 143.631 26.3647 143.349 29.8953H143.369Z" fill="rgb(20, 62, 53)"></path><path d="M165.095 39.2828C160.637 39.2828 157.651 36.323 157.651 31.1433C157.651 25.9636 160.355 22.5176 165.519 22.5176C166.649 22.5176 167.778 22.7713 168.686 23.1518V15.9214L170.119 15.8157V37.8875C168.928 38.7543 167.254 39.2828 165.095 39.2828ZM165.055 37.9086C166.487 37.9086 167.94 37.5492 168.686 37.0207V24.6317C167.778 24.1877 166.608 23.8706 165.539 23.8706C161.343 23.8706 159.144 26.619 159.144 31.1433C159.144 35.3505 161.484 37.9086 165.055 37.9086Z" fill="rgb(20, 62, 53)"></path><path d="M174.113 17.9294C174.113 17.3163 174.517 16.7878 175.243 16.7878C175.909 16.7878 176.312 17.3375 176.312 17.9294C176.312 18.606 175.909 19.1134 175.243 19.1134C174.517 19.1134 174.113 18.606 174.113 17.9294ZM175.949 38.9019H174.517V22.8977H175.949V38.9019Z" fill="rgb(20, 62, 53)"></path><path d="M184.765 39.2837C181.073 39.2837 179.156 37.4021 179.156 34.6537C179.156 31.1019 181.86 29.8334 185.007 29.8334C186.378 29.8334 187.77 30.0237 189.021 30.3197V28.1421C189.021 25.4994 187.71 23.8715 184.724 23.8715C183.13 23.8715 181.678 24.252 180.589 24.7383L180.185 23.4275C181.315 22.9201 183.05 22.5396 184.765 22.5396C188.537 22.5396 190.453 24.4846 190.453 28.1844V37.7615C189.082 38.6494 187.347 39.2837 184.765 39.2837ZM189.021 36.9158V31.5882C187.891 31.2922 186.681 31.0808 185.087 31.0808C182.505 31.0808 180.609 31.9476 180.609 34.6537C180.609 36.8524 182.202 37.9729 184.805 37.9729C186.963 37.9729 188.255 37.4232 189.001 36.9158H189.021Z" fill="rgb(20, 62, 53)"></path></svg>