<?xml version="1.0" encoding="UTF-8"?>
<svg id="Layer_1" xmlns="http://www.w3.org/2000/svg" xmlns:xlink="http://www.w3.org/1999/xlink" version="1.1" viewBox="0 0 579.65 370.9">
  <!-- Generator: Adobe Illustrator 29.0.1, SVG Export Plug-In . SVG Version: 2.1.0 Build 192)  -->
  <defs>
    <style>
      .st0 {
        fill: url(#linear-gradient);
      }

      .st0, .st1, .st2, .st3, .st4, .st5 {
        fill-rule: evenodd;
      }

      .st1 {
        fill: url(#linear-gradient1);
      }

      .st2 {
        fill: url(#linear-gradient2);
      }

      .st3 {
        fill: url(#linear-gradient4);
      }

      .st4 {
        fill: url(#linear-gradient5);
      }

      .st5 {
        fill: url(#linear-gradient3);
      }
    </style>
    <linearGradient id="linear-gradient" x1="92.33" y1="257.55" x2="459.33" y2="116.55" gradientUnits="userSpaceOnUse">
      <stop offset="0" stop-color="#23c9dd"/>
      <stop offset=".49" stop-color="#27a6de"/>
      <stop offset=".51" stop-color="#2c7be2"/>
      <stop offset="1" stop-color="#1659c8"/>
    </linearGradient>
    <linearGradient id="linear-gradient1" x1="92.82" y1="258.81" x2="459.82" y2="117.81" xlink:href="#linear-gradient"/>
    <linearGradient id="linear-gradient2" x1="78.45" y1="221.41" x2="445.45" y2="80.41" xlink:href="#linear-gradient"/>
    <linearGradient id="linear-gradient3" x1="81.04" y1="228.16" x2="448.04" y2="87.16" xlink:href="#linear-gradient"/>
    <linearGradient id="linear-gradient4" x1="81.12" y1="228.36" x2="448.12" y2="87.36" xlink:href="#linear-gradient"/>
    <linearGradient id="linear-gradient5" x1="78.45" y1="221.41" x2="445.45" y2="80.41" xlink:href="#linear-gradient"/>
  </defs>
  <path class="st0" d="M359.65,159.73c.18,1.63-.02,3.42-.6,5.38l-.34,1.11c-.58,1.96-1.55,3.64-2.92,5.06l-.79.81c-1.37,1.41-2.83,2.44-4.4,3.1l-.9.37c-1.57.65-3.27.96-5.08.94h-1.04c-1.81-.03-3.49-.35-5.03-.99l-.88-.36c-1.54-.63-2.98-1.59-4.32-2.9l-.78-.74c-1.35-1.31-2.36-2.72-3.05-4.24l-.39-.87c-.69-1.52-1.04-3.19-1.05-4.99v-1.04c-.02-1.81.3-3.48.95-5l.38-.86c.65-1.53,2.33-3.23,5.05-5.13l1.55-1.07c.33-.23.64-.44.93-.65l.03-.02,3.11-2.17-1.91,1.34c1.3-.89,1.99-1.35,2.07-1.36h.07c.11-.03,1.69.16,4.73.57l1.73.23c3.04.41,5.31,1.23,6.8,2.48l.86.71c1.49,1.25,2.6,2.58,3.33,3.99l.42.81c.73,1.41,1.18,2.93,1.37,4.56l.1.93Z"/>
  <path class="st1" d="M250.87,155.86l-.34-.94c-.62-1.62-1.57-3.08-2.84-4.37l-.74-.75c-1.27-1.28-2.67-2.27-4.19-2.95l-.87-.39c-1.52-.68-3.31-1.03-5.38-1.04l-1.17-.02c-2.07,0-3.15,0-3.26.02h-.07c-.11.03-1.52,1.07-4.24,3.14l-5.62,4.27-1.22,6.32c-.59,3.06-.59,5.36,0,6.91l.34.9c.59,1.55,1.54,3.02,2.86,4.4l.76.78c1.32,1.38,2.73,2.4,4.23,3.06l.86.38c1.51.66,3.29.99,5.36.99h1.17c2.07,0,3.87-.33,5.42-1l.88-.37c1.54-.66,2.96-1.64,4.24-2.95l.72-.74c1.27-1.31,2.2-3.53,2.8-6.68l.34-1.81c.59-3.15.58-5.54-.04-7.16ZM250.87,155.86l-.34-.94c-.62-1.62-1.57-3.08-2.84-4.37l-.74-.75c-1.27-1.28-2.67-2.27-4.19-2.95l-.87-.39c-1.52-.68-3.31-1.03-5.38-1.04l-1.17-.02c-2.07,0-3.15,0-3.26.02h-.07c-.11.03-1.52,1.07-4.24,3.14l-5.62,4.27-1.22,6.32c-.59,3.06-.59,5.36,0,6.91l.34.9c.59,1.55,1.54,3.02,2.86,4.4l.76.78c1.32,1.38,2.73,2.4,4.23,3.06l.86.38c1.51.66,3.29.99,5.36.99h1.17c2.07,0,3.87-.33,5.42-1l.88-.37c1.54-.66,2.96-1.64,4.24-2.95l.72-.74c1.27-1.31,2.2-3.53,2.8-6.68l.34-1.81c.59-3.15.58-5.54-.04-7.16ZM250.87,155.86l-.34-.94c-.62-1.62-1.57-3.08-2.84-4.37l-.74-.75c-1.27-1.28-2.67-2.27-4.19-2.95l-.87-.39c-1.52-.68-3.31-1.03-5.38-1.04l-1.17-.02c-2.07,0-3.15,0-3.26.02h-.07c-.11.03-1.52,1.07-4.24,3.14l-5.62,4.27-1.22,6.32c-.59,3.06-.59,5.36,0,6.91l.34.9c.59,1.55,1.54,3.02,2.86,4.4l.76.78c1.32,1.38,2.73,2.4,4.23,3.06l.86.38c1.51.66,3.29.99,5.36.99h1.17c2.07,0,3.87-.33,5.42-1l.88-.37c1.54-.66,2.96-1.64,4.24-2.95l.72-.74c1.27-1.31,2.2-3.53,2.8-6.68l.34-1.81c.59-3.15.58-5.54-.04-7.16ZM250.87,155.86l-.34-.94c-.62-1.62-1.57-3.08-2.84-4.37l-.74-.75c-1.27-1.28-2.67-2.27-4.19-2.95l-.87-.39c-1.52-.68-3.31-1.03-5.38-1.04l-1.17-.02c-2.07,0-3.15,0-3.26.02h-.07c-.11.03-1.52,1.07-4.24,3.14l-5.62,4.27-1.22,6.32c-.59,3.06-.59,5.36,0,6.91l.34.9c.59,1.55,1.54,3.02,2.86,4.4l.76.78c1.32,1.38,2.73,2.4,4.23,3.06l.86.38c1.51.66,3.29.99,5.36.99h1.17c2.07,0,3.87-.33,5.42-1l.88-.37c1.54-.66,2.96-1.64,4.24-2.95l.72-.74c1.27-1.31,2.2-3.53,2.8-6.68l.34-1.81c.59-3.15.58-5.54-.04-7.16ZM475.59,120.67l-.36-1.47c-.61-2.58-2.06-5.64-4.34-9.17l-1.31-2.03c-2.28-3.54-5.4-7.57-9.38-12.09l-2.26-2.58c-3.98-4.54-7.07-7.5-9.29-8.91l-1.27-.8c-2.22-1.41-4.36-2.1-6.42-2.1l-1.19.02c-2.07,0-8.85,2.11-20.37,6.33l-23.84,8.74-13.72-6.72c-29.98-14.67-65.19-24.6-98.74-23.4-12.99.47-25.9,2.77-38.17,7.11-12.54,4.44-25.63,7.58-37.85,13.06l-22.95,10.28-22.09-8.28c-10.66-4-17.45-6.14-20.36-6.4l-6.03-.55-5.18,3.33c-2.5,1.61-5.7,4.72-9.61,9.33l-2.24,2.63c-3.91,4.6-6.98,8.71-9.23,12.32l-1.28,2.06c-2.25,3.6-3.57,6.66-3.98,9.15l-.23,1.44c-.41,2.49.06,5.66,1.41,9.48l.77,2.18c1.35,3.82,5.34,10.56,11.98,20.2l13.75,19.98-2.95,31.05c-1.41,14.99-2.1,30.04-2.08,45.13l.05,31.29,62.71,1c30.28.49,49.38,1.68,57.31,3.58l4.53,1.1c7.92,1.9,15.64,4.9,23.13,9.01l15.53,8.54,15.4-8.54c7.45-4.11,14.99-7.13,22.65-9.06l4.38-1.11c7.66-1.93,26.68-3.12,57.06-3.58l62.94-.94-.06-35.56c-.03-17.16-.69-32.2-1.98-45.13l-2.68-26.78,14.06-20.06c6.78-9.68,10.8-16.58,12.07-20.69l.73-2.34c1.27-4.11,1.6-7.46.98-10.05ZM158.07,123.63c-3.83,4.62-7.16,9.31-9.98,14.08l-5.85,9.88-5.63-7.35c-2.71-3.55-4.44-6.77-5.19-9.67l-.43-1.67c-.74-2.9-.58-5.82.49-8.77l2.23-6.1,5.62-3.35c2.71-1.62,4.12-2.44,4.23-2.45h.07c.11,0,1.59.16,4.44.49l1.61.2c2.85.33,5.97,1.15,9.35,2.46l6.99,2.7-7.95,9.55ZM231.15,206.27l-2.48.7c-4.34,1.22-8.86,1.55-13.56.99l-2.67-.33c-4.7-.56-8.77-1.82-12.22-3.78l-1.98-1.13c-3.46-1.96-6.65-4.59-9.58-7.89l-1.68-1.9c-2.93-3.29-5.23-7.2-6.91-11.72l-.97-2.57c-1.67-4.51-2.32-9.32-1.95-14.45l.22-2.92c.37-5.13,1.54-9.65,3.49-13.57l1.12-2.24c1.95-3.92,4.69-7.5,8.19-10.73l2-1.85c3.5-3.23,7.58-5.6,12.22-7.12l2.66-.87,1.27-.42c.26-.08.51-.16.75-.24l1.12-.37c.41-.13.78-.25,1.12-.36l.63-.21c.13-.04.25-.08.37-.12,1.18-.38,1.8-.57,1.86-.58h.06c.11-.02,2.7.25,7.77.81l2.91.31c5.07.56,9.47,1.84,13.2,3.84l2.12,1.14c3.72,2,7.1,4.74,10.14,8.21l1.75,1.99c3.04,3.47,5.23,7.14,6.58,11.01l.76,2.21c1.35,3.87,1.98,8.03,1.9,12.49l-.03,2.53c-.08,4.46-1.25,9.18-3.5,14.17l-1.28,2.85c-2.24,4.98-5.53,9.26-9.88,12.86l-2.49,2.05c-4.34,3.59-8.69,5.99-13.03,7.21ZM306.72,265.75l-3.88,3.92-25.61.08-3.87-3.38-2.36-15.75,10.82-4.8c5.22-2.32,7.89-3.49,8-3.51h.05c.13-.01,2.82,1.2,8.06,3.63l10.88,5.08-2.09,14.73ZM333.4,228.18l-.29,1.2c-.52,2.11-1.53,3.96-3.02,5.54l-.85.91c-1.48,1.59-3.43,2.75-5.86,3.48l-1.39.41c-2.42.73-4.99.9-7.7.5l-1.56-.23c-2.72-.41-6.73-1.74-12.06-4.01l-11.02-4.69-11.03,4.69c-5.32,2.27-9.67,3.57-13.03,3.92l-1.93.21c-3.36.36-5.92.2-7.66-.49l-1.01-.39c-1.74-.68-3.39-1.88-4.95-3.62l-.9-1c-1.57-1.74-2.54-3.98-2.92-6.73l-.79-5.69,3.27-5.33c1.57-2.57,3.79-4.89,6.66-6.96l1.62-1.17c2.86-2.07,5.76-4.67,8.71-7.82l6.12-6.51,10.35-1.82c4.99-.87,7.55-1.31,7.66-1.31h.05c.11-.01,2.79.42,8.03,1.29l10.86,1.82,13.66,13.69c6.61,6.61,10.17,10.91,10.69,12.88l.29,1.11c.52,1.97.52,4.01,0,6.12ZM402.83,167.97l-.19,2.39c-.32,4.17-1.63,8.5-3.91,12.97l-1.3,2.57c-2.28,4.48-5.38,8.38-9.29,11.7l-2.22,1.89c-3.91,3.32-7.93,5.58-12.06,6.79l-2.36.7c-4.13,1.21-8.6,1.54-13.38.98l-2.73-.33c-4.78-.56-9.2-1.98-13.25-4.26l-2.31-1.3c-4.05-2.28-7.68-5.48-10.91-9.59l-1.84-2.35c-3.23-4.11-5.45-8.46-6.67-13.04l-.7-2.61c-1.22-4.58-1.54-9.28-.97-14.09l.32-2.74c.57-4.8,1.83-8.89,3.78-12.25l1.12-1.9c1.96-3.36,4.94-6.63,8.96-9.84l2.29-1.83c4.02-3.19,8.21-5.41,12.55-6.66l2.49-.71,1.27-.37c.09-.02.18-.04.26-.07.24-.07.47-.13.7-.2l1.77-.51c.17-.05.33-.09.49-.14l.87-.25c.83-.23,1.28-.35,1.32-.36h.06c.11-.02,2.53.26,7.27.83l2.7.31c4.74.57,8.95,1.83,12.62,3.78l2.09,1.12c3.68,1.95,7.12,4.91,10.34,8.87l1.84,2.26c3.21,3.95,5.47,8.18,6.77,12.68l.74,2.57c1.31,4.49,1.8,8.82,1.47,12.99ZM448.43,129.36c-.62,3.25-2.29,6.78-5,10.56l-5.59,7.86-6.52-10.92c-3.15-5.27-6.48-9.93-9.99-13.99l-7.25-8.41,2.25-1.57c1.09-.76,3.43-1.63,7.04-2.61l2.07-.56c3.61-.98,5.47-1.48,5.58-1.49h.07c.11-.02.97,0,2.6.05l.93.02c1.63.06,3.37.56,5.22,1.52l1.05.54c1.84.96,3.62,2.95,5.31,5.97l3.52,6.28-1.29,6.75ZM247.77,171.51c1.27-1.31,2.2-3.53,2.8-6.68l.34-1.81c.59-3.15.58-5.54-.04-7.16l-.34-.94c-.62-1.62-1.57-3.08-2.84-4.37l-.74-.75c-1.27-1.28-2.67-2.27-4.19-2.95l-.87-.39c-1.52-.68-3.31-1.03-5.38-1.04l-1.17-.02c-2.07,0-3.15,0-3.26.02h-.07c-.11.03-1.52,1.07-4.24,3.14l-5.62,4.27-1.22,6.32c-.59,3.06-.59,5.36,0,6.91l.34.9c.59,1.55,1.54,3.02,2.86,4.4l.76.78c1.32,1.38,2.73,2.4,4.23,3.06l.86.38c1.51.66,3.29.99,5.36.99h1.17c2.07,0,3.87-.33,5.42-1l.88-.37c1.54-.66,2.96-1.64,4.24-2.95l.72-.74ZM250.87,155.86l-.34-.94c-.62-1.62-1.57-3.08-2.84-4.37l-.74-.75c-1.27-1.28-2.67-2.27-4.19-2.95l-.87-.39c-1.52-.68-3.31-1.03-5.38-1.04l-1.17-.02c-2.07,0-3.15,0-3.26.02h-.07c-.11.03-1.52,1.07-4.24,3.14l-5.62,4.27-1.22,6.32c-.59,3.06-.59,5.36,0,6.91l.34.9c.59,1.55,1.54,3.02,2.86,4.4l.76.78c1.32,1.38,2.73,2.4,4.23,3.06l.86.38c1.51.66,3.29.99,5.36.99h1.17c2.07,0,3.87-.33,5.42-1l.88-.37c1.54-.66,2.96-1.64,4.24-2.95l.72-.74c1.27-1.31,2.2-3.53,2.8-6.68l.34-1.81c.59-3.15.58-5.54-.04-7.16ZM250.87,155.86l-.34-.94c-.62-1.62-1.57-3.08-2.84-4.37l-.74-.75c-1.27-1.28-2.67-2.27-4.19-2.95l-.87-.39c-1.52-.68-3.31-1.03-5.38-1.04l-1.17-.02c-2.07,0-3.15,0-3.26.02h-.07c-.11.03-1.52,1.07-4.24,3.14l-5.62,4.27-1.22,6.32c-.59,3.06-.59,5.36,0,6.91l.34.9c.59,1.55,1.54,3.02,2.86,4.4l.76.78c1.32,1.38,2.73,2.4,4.23,3.06l.86.38c1.51.66,3.29.99,5.36.99h1.17c2.07,0,3.87-.33,5.42-1l.88-.37c1.54-.66,2.96-1.64,4.24-2.95l.72-.74c1.27-1.31,2.2-3.53,2.8-6.68l.34-1.81c.59-3.15.58-5.54-.04-7.16ZM250.87,155.86l-.34-.94c-.62-1.62-1.57-3.08-2.84-4.37l-.74-.75c-1.27-1.28-2.67-2.27-4.19-2.95l-.87-.39c-1.52-.68-3.31-1.03-5.38-1.04l-1.17-.02c-2.07,0-3.15,0-3.26.02h-.07c-.11.03-1.52,1.07-4.24,3.14l-5.62,4.27-1.22,6.32c-.59,3.06-.59,5.36,0,6.91l.34.9c.59,1.55,1.54,3.02,2.86,4.4l.76.78c1.32,1.38,2.73,2.4,4.23,3.06l.86.38c1.51.66,3.29.99,5.36.99h1.17c2.07,0,3.87-.33,5.42-1l.88-.37c1.54-.66,2.96-1.64,4.24-2.95l.72-.74c1.27-1.31,2.2-3.53,2.8-6.68l.34-1.81c.59-3.15.58-5.54-.04-7.16ZM250.87,155.86l-.34-.94c-.62-1.62-1.57-3.08-2.84-4.37l-.74-.75c-1.27-1.28-2.67-2.27-4.19-2.95l-.87-.39c-1.52-.68-3.31-1.03-5.38-1.04l-1.17-.02c-2.07,0-3.15,0-3.26.02h-.07c-.11.03-1.52,1.07-4.24,3.14l-5.62,4.27-1.22,6.32c-.59,3.06-.59,5.36,0,6.91l.34.9c.59,1.55,1.54,3.02,2.86,4.4l.76.78c1.32,1.38,2.73,2.4,4.23,3.06l.86.38c1.51.66,3.29.99,5.36.99h1.17c2.07,0,3.87-.33,5.42-1l.88-.37c1.54-.66,2.96-1.64,4.24-2.95l.72-.74c1.27-1.31,2.2-3.53,2.8-6.68l.34-1.81c.59-3.15.58-5.54-.04-7.16Z"/>
  <path class="st2" d="M250.91,163.02l-.34,1.81c-.6,3.15-1.53,5.37-2.8,6.68l-.72.74c-1.28,1.31-2.7,2.29-4.24,2.95l-.88.37c-1.55.67-3.35,1-5.42,1h-1.17c-2.07,0-3.85-.33-5.36-.99l-.86-.38c-1.5-.66-2.91-1.68-4.23-3.06l-.76-.78c-1.32-1.38-2.27-2.85-2.86-4.4l-.34-.9c-.59-1.55-.59-3.85,0-6.91l1.22-6.32,5.62-4.27c2.72-2.07,4.13-3.11,4.24-3.13h.07c.11-.03,1.19-.03,3.26-.03l1.17.02c2.07.01,3.86.36,5.38,1.04l.87.39c1.52.68,2.92,1.67,4.19,2.95l.74.75c1.27,1.29,2.22,2.75,2.84,4.37l.34.94c.62,1.62.63,4.01.04,7.16Z"/>
  <path class="st5" d="M352.48,123.82c-.23.07-.46.13-.7.2l2.47-.71-1.77.51Z"/>
  <path class="st3" d="M354.74,123.17c-.16.05-.32.09-.49.14l2.52-.73-2.03.59Z"/>
  <path class="st0" d="M359.05,165.11l-.34,1.11c-.58,1.96-1.55,3.64-2.92,5.06l-.79.81c-1.37,1.41-2.83,2.44-4.4,3.1l-.9.37c-1.57.65-3.27.96-5.08.94h-1.04c-1.81-.03-3.49-.35-5.03-.99l-.88-.36c-1.54-.63-2.98-1.59-4.32-2.9l-.78-.74c-1.35-1.31-2.36-2.72-3.05-4.24l-.39-.87c-.69-1.52-1.04-3.19-1.05-4.99v-1.04c-.02-1.81.3-3.48.95-5l.38-.86c.65-1.53,2.33-3.23,5.05-5.13l1.55-1.07c.33-.23.64-.44.93-.65l.03-.02,3.11-2.17-1.91,1.34c1.3-.89,1.99-1.35,2.07-1.36h.07c.11-.03,1.69.16,4.73.57l1.73.23c3.04.41,5.31,1.23,6.8,2.48l.86.71c1.49,1.25,2.6,2.58,3.33,3.99l.42.81c.73,1.41,1.18,2.93,1.37,4.56l.1.93c.18,1.63-.02,3.42-.6,5.38Z"/>
  <path class="st4" d="M250.91,163.02l-.34,1.81c-.6,3.15-1.53,5.37-2.8,6.68l-.72.74c-1.28,1.31-2.7,2.29-4.24,2.95l-.88.37c-1.55.67-3.35,1-5.42,1h-1.17c-2.07,0-3.85-.33-5.36-.99l-.86-.38c-1.5-.66-2.91-1.68-4.23-3.06l-.76-.78c-1.32-1.38-2.27-2.85-2.86-4.4l-.34-.9c-.59-1.55-.59-3.85,0-6.91l1.22-6.32,5.62-4.27c2.72-2.07,4.13-3.11,4.24-3.13h.07c.11-.03,1.19-.03,3.26-.03l1.17.02c2.07.01,3.86.36,5.38,1.04l.87.39c1.52.68,2.92,1.67,4.19,2.95l.74.75c1.27,1.29,2.22,2.75,2.84,4.37l.34.94c.62,1.62.63,4.01.04,7.16Z"/>
  <path class="st0" d="M359.05,165.11l-.34,1.11c-.58,1.96-1.55,3.64-2.92,5.06l-.79.81c-1.37,1.41-2.83,2.44-4.4,3.1l-.9.37c-1.57.65-3.27.96-5.08.94h-1.04c-1.81-.03-3.49-.35-5.03-.99l-.88-.36c-1.54-.63-2.98-1.59-4.32-2.9l-.78-.74c-1.35-1.31-2.36-2.72-3.05-4.24l-.39-.87c-.69-1.52-1.04-3.19-1.05-4.99v-1.04c-.02-1.81.3-3.48.95-5l.38-.86c.65-1.53,2.33-3.23,5.05-5.13l1.55-1.07c.33-.23.64-.44.93-.65l.03-.02,3.11-2.17-1.91,1.34-1.19.83c.44-.31.84-.58,1.19-.83,1.3-.89,1.99-1.35,2.07-1.36h.07c.11-.03,1.69.16,4.73.57l1.73.23c3.04.41,5.31,1.23,6.8,2.48l.86.71c1.49,1.25,2.6,2.58,3.33,3.99l.42.81c.73,1.41,1.18,2.93,1.37,4.56l.1.93c.18,1.63-.02,3.42-.6,5.38Z"/>
</svg>